<svg version="1.0" id="katman_1" xmlns="http://www.w3.org/2000/svg" xmlns:xlink="http://www.w3.org/1999/xlink" x="0px" y="0px"
	 viewBox="0 0 800 600" style="enable-background:new 0 0 800 600;" xml:space="preserve">
<style type="text/css">
	.st0{fill:#699F63;}
	.st1{fill-rule:evenodd;clip-rule:evenodd;fill:#333333;}
	.st2{fill-rule:evenodd;clip-rule:evenodd;fill:#699F63;}
	.st3{fill-rule:evenodd;clip-rule:evenodd;fill:url(#SVGID_1_);}
	.st4{fill:none;}
	.st5{fill:url(#SVGID_00000013164395776078224130000015716384145689473701_);}
	.st6{fill:url(#SVGID_00000104691625543940297370000011366655636974680971_);}
	.st7{fill:url(#SVGID_00000015323178900347594040000014916163577798326962_);}
	.st8{fill:url(#SVGID_00000012463727148455555610000006123014352418132670_);}
	.st9{fill:url(#SVGID_00000044135551797696037690000012925506725738924460_);}
	.st10{fill:url(#SVGID_00000076600993853275803470000007153698136801308048_);}
</style>
<g>
	<path class="st0" d="M396.1,499.3c-2.2,0-4.4-0.5-6.2-1.7L370.3,486c-3-1.7-1.5-2.2-0.5-2.5c3.2-1,6-2.3,8.9-4
		c0.5-0.2,1-0.2,1.5,0.2l15.1,8.9c0.5,0.3,1.3,0.3,1.8,0l58.8-34c0.5-0.3,0.8-1,0.8-1.5v-67.9c0-0.7-0.3-1.3-0.8-1.7l-58.8-33.8
		c-0.5-0.3-1.2-0.3-1.8,0l-58.8,33.8c-0.5,0.3-1,1-1,1.7V453c0,0.7,0.3,1.3,1,1.5l16.1,9.4c8.7,4.4,14.1-0.8,14.1-5.9v-67.2
		c0-1,0.8-1.7,1.7-1.7l0,0h7.4c1,0,1.7,0.7,1.7,1.7l0,0v67c0,11.7-6.4,18.4-17.4,18.4c-3.4,0-6,0-13.6-3.7l-15.4-8.9
		c-3.9-2.2-6.2-6.4-6.2-10.7v-67.9c0-4.4,2.3-8.5,6.2-10.7l58.8-34c3.9-2.2,8.5-2.2,12.4,0l58.8,34c3.9,2.2,6.2,6.4,6.2,10.7V453
		c0,4.4-2.3,8.5-6.2,10.7l-58.8,34C400.5,498.8,398.3,499.3,396.1,499.3z"/>
	<path class="st0" d="M414.2,452.5c-25.8,0-31.2-11.7-31.2-21.8c0-1,0.7-1.7,1.7-1.7l0,0h7.5c0.8,0,1.5,0.7,1.7,1.5
		c1.2,7.7,4.5,11.7,20.1,11.7c12.4,0,17.8-2.8,17.8-9.4c0-3.9-1.5-6.5-20.8-8.5c-16.1-1.5-26.1-5.2-26.1-18.1
		c0-11.9,10.1-18.9,26.8-18.9c18.9,0,28.1,6.5,29.3,20.6c0,0.5-0.2,1-0.5,1.3c-0.3,0.3-0.8,0.5-1.2,0.5h-7.7c-0.8,0-1.5-0.5-1.7-1.3
		c-1.8-8.2-6.4-10.7-18.4-10.7c-13.6,0-15.1,4.7-15.1,8.2c0,4.4,1.8,5.5,20.1,7.9s26.6,5.7,26.6,18.4
		C443.2,445,433,452.5,414.2,452.5z"/>
	<path class="st0" d="M499.2,381.3c0,6.2-5,11.4-11.4,11.4c-6.2,0-11.4-5-11.4-11.4c0-6.2,5-11.4,11.4-11.4
		C494,369.9,499.2,375,499.2,381.3z M478.2,381.3c0,5.2,4.2,9.5,9.5,9.5c5.2,0,9.5-4.2,9.5-9.5c0-5.2-4.2-9.5-9.5-9.5l0,0
		C482.6,371.8,478.2,376,478.2,381.3L478.2,381.3z M483.6,375h4.4c1.5,0,4.4,0,4.4,3.4c0.2,1.5-0.8,2.8-2.3,3.2c1.7,0.2,1.8,1.3,2,3
		c0,1.2,0.3,2.3,0.7,3.4H490c0-0.7-0.5-3.9-0.5-4c-0.2-0.7-0.5-1-1.3-1h-2.2v5h-2.3V375z M485.9,380.5h2c1,0.2,1.8-0.5,1.8-1.5
		c0-0.2,0-0.2,0-0.3c0-1.7-1.2-1.7-1.8-1.7h-2V380.5z"/>
	<path class="st1" d="M213.9,233.6c0-2.7-1.5-5.2-3.9-6.5l-62.3-35.9c-1-0.7-2.2-1-3.4-1h-0.8c-1.2,0-2.3,0.3-3.5,1L77.8,227
		c-2.3,1.3-3.9,3.9-3.9,6.5l0.2,96.7c0,1.3,0.7,2.5,1.8,3.2s2.5,0.7,3.7,0l37.2-21.1c2.3-1.3,3.7-3.9,3.9-6.5v-45.2
		c0-2.7,1.5-5.2,3.7-6.5l15.7-9c1.2-0.7,2.5-1,3.9-1c1.3,0,2.7,0.3,3.7,1l15.7,9c2.3,1.3,3.7,3.9,3.7,6.5v45.2
		c0,2.7,1.5,5.2,3.9,6.5l37,21.3c1.2,0.7,2.7,0.7,3.9,0c1.2-0.7,1.8-1.8,1.8-3.2L213.9,233.6z"/>
	<path class="st1" d="M514.1,100.7c-1.8-1-4.2-0.3-5.2,1.5c-0.3,0.5-0.5,1.2-0.5,1.8v95.8c0,1-0.5,1.8-1.3,2.3
		c-0.8,0.5-1.8,0.5-2.7,0l-15.6-9c-2.3-1.3-5.2-1.3-7.5,0l-62.5,36c-2.3,1.3-3.9,3.9-3.9,6.5v72c0,2.7,1.5,5.2,3.9,6.5l62.5,36
		c2.3,1.3,5.2,1.3,7.5,0l62.5-36c2.3-1.3,3.7-3.9,3.9-6.5V128c0-2.7-1.5-5.2-3.9-6.5L514.1,100.7z M508.2,284c0,0.7-0.3,1.3-1,1.7
		l-21.4,12.4c-0.7,0.3-1.3,0.3-1.8,0l-21.4-12.4c-0.5-0.3-1-1-1-1.7v-24.8c0-0.7,0.3-1.3,1-1.7l21.4-12.4c0.5-0.3,1.3-0.3,1.8,0
		l21.4,12.4c0.5,0.3,1,1,1,1.7V284z"/>
	<path class="st1" d="M722,258.5c2.3-1.3,3.7-3.9,3.7-6.5v-17.4c0-2.7-1.5-5.2-3.7-6.5l-62-36c-2.3-1.3-5.2-1.3-7.5,0l-62.3,36
		c-2.3,1.3-3.9,3.9-3.9,6.5v72c0,2.7,1.5,5.2,3.9,6.5l62,35.4c2.3,1.3,5,1.3,7.4,0l37.5-20.8c1.8-1,2.5-3.4,1.5-5.2
		c-0.3-0.7-0.8-1.2-1.5-1.5l-62.8-36c-1.2-0.7-1.8-1.8-1.8-3.4v-22.5c0-1.3,0.7-2.5,1.8-3.2l19.6-11.2c1.2-0.7,2.5-0.7,3.7,0
		l19.6,11.2c1.2,0.7,1.8,1.8,1.8,3.2v17.8c0,2,1.7,3.7,3.7,3.9c0.7,0,1.3-0.2,1.8-0.5L722,258.5z"/>
	<path class="st2" d="M655.2,255.2c0.5-0.3,1-0.3,1.5,0l12.1,6.9c0.5,0.3,0.7,0.7,0.7,1.3v13.7c0,0.5-0.3,1-0.7,1.2l-11.9,6.9
		c-0.5,0.3-1,0.3-1.5,0l-11.9-6.9c-0.5-0.3-0.7-0.7-0.7-1.2v-13.7c0-0.5,0.3-1,0.7-1.3L655.2,255.2z"/>
	
		<linearGradient id="SVGID_1_" gradientUnits="userSpaceOnUse" x1="438.9799" y1="41.6967" x2="382.9078" y2="156.1098" gradientTransform="matrix(1 0 0 1 -99.2549 177.3422)">
		<stop  offset="0" style="stop-color:#41873F"/>
		<stop  offset="0.33" style="stop-color:#418B3D"/>
		<stop  offset="0.64" style="stop-color:#409637"/>
		<stop  offset="0.93" style="stop-color:#3FA92D"/>
		<stop  offset="1" style="stop-color:#3FAE2A"/>
	</linearGradient>
	<path class="st3" d="M318.2,192.3c-2.3-1.3-5.2-1.3-7.5,0l-62,35.9c-2.3,1.3-3.7,3.9-3.7,6.5v71.7c0,2.7,1.5,5.2,3.7,6.5l62,35.9
		c2.3,1.3,5.2,1.3,7.5,0l62-35.9c2.3-1.3,3.7-3.9,3.7-6.5v-71.7c0-2.7-1.5-5.2-3.7-6.5L318.2,192.3z"/>
	<g>
		<g>
			<path class="st4" d="M310.7,192.3l-62.2,35.9c-2.3,1.3-3.9,3.9-4,6.5v71.7c0,1.8,0.7,3.5,2,4.7l69.7-119.5
				C314.4,191.2,312.4,191.3,310.7,192.3z"/>
			<path class="st4" d="M316.6,349.5c0.7-0.2,1.2-0.3,1.7-0.7l62.2-35.9c2.3-1.3,3.9-3.9,3.9-6.5v-71.7c0-2-0.8-3.9-2.3-5.2
				L316.6,349.5z"/>
			
				<linearGradient id="SVGID_00000106146843882174063400000000726912293163317905_" gradientUnits="userSpaceOnUse" x1="404.1848" y1="101.4138" x2="561.5285" y2="-14.8409" gradientTransform="matrix(1 0 0 1 -99.2549 177.3422)">
				<stop  offset="0.14" style="stop-color:#41873F"/>
				<stop  offset="0.4" style="stop-color:#54A044"/>
				<stop  offset="0.71" style="stop-color:#66B748"/>
				<stop  offset="0.91" style="stop-color:#6CC04A"/>
			</linearGradient>
			<path style="fill:url(#SVGID_00000106146843882174063400000000726912293163317905_);" d="M380.4,228.2l-62.3-35.9
				c-0.7-0.3-1.3-0.7-2-0.8l-69.9,119.6c0.7,0.7,1.3,1.3,2,1.7l62.3,35.9c1.7,1,3.9,1.3,5.9,0.7l65.5-120
				C381.6,229,381.1,228.5,380.4,228.2z"/>
			<path class="st4" d="M384.4,306.4v-71.7c0-2.7-1.5-5.2-3.9-6.5l-62.3-35.9c-0.7-0.3-1.5-0.7-2.3-0.8l68.2,116.6
				C384.2,307.6,384.4,306.9,384.4,306.4z"/>
			<path class="st4" d="M248.4,228.2c-2.3,1.3-3.9,3.9-4,6.5v71.7c0.2,2.7,1.7,5.2,4,6.5l62.3,35.9c1.5,0.8,3.2,1.2,4.9,1
				l-66.7-121.6L248.4,228.2z"/>
			
				<linearGradient id="SVGID_00000020357262043845268250000012958165676398542247_" gradientUnits="userSpaceOnUse" x1="263.6865" y1="-161.8419" x2="407.1963" y2="-161.8419" gradientTransform="matrix(1 0 0 1 -20.9449 341.3622)">
				<stop  offset="9.000000e-02" style="stop-color:#6CC04A"/>
				<stop  offset="0.29" style="stop-color:#66B748"/>
				<stop  offset="0.6" style="stop-color:#54A044"/>
				<stop  offset="0.86" style="stop-color:#41873F"/>
			</linearGradient>
			<polygon style="fill:url(#SVGID_00000020357262043845268250000012958165676398542247_);" points="308.7,179.3 307.8,179.8 
				309,179.8 			"/>
			
				<linearGradient id="SVGID_00000078008287630686272380000014348614742781274552_" gradientUnits="userSpaceOnUse" x1="341.9818" y1="93.171" x2="485.5065" y2="93.171" gradientTransform="matrix(1 0 0 1 -99.2549 177.3422)">
				<stop  offset="9.000000e-02" style="stop-color:#6CC04A"/>
				<stop  offset="0.29" style="stop-color:#66B748"/>
				<stop  offset="0.6" style="stop-color:#54A044"/>
				<stop  offset="0.86" style="stop-color:#41873F"/>
			</linearGradient>
			<path style="fill:url(#SVGID_00000078008287630686272380000014348614742781274552_);" d="M380.4,312.8c1.8-1,3.2-2.7,3.7-4.7
				l-68.2-116.6c-1.8-0.3-3.7,0-5.2,0.8L248.9,228l66.8,121.6c1-0.2,1.8-0.5,2.7-1L380.4,312.8z"/>
			
				<linearGradient id="SVGID_00000107586763614814849000000001545238243711281086_" gradientUnits="userSpaceOnUse" x1="263.6865" y1="-29.9055" x2="407.1963" y2="-29.9055" gradientTransform="matrix(1 0 0 1 -20.9449 341.3622)">
				<stop  offset="9.000000e-02" style="stop-color:#6CC04A"/>
				<stop  offset="0.29" style="stop-color:#66B748"/>
				<stop  offset="0.6" style="stop-color:#54A044"/>
				<stop  offset="0.86" style="stop-color:#41873F"/>
			</linearGradient>
			<polygon style="fill:url(#SVGID_00000107586763614814849000000001545238243711281086_);" points="386.3,311.8 385.9,311 
				385.9,312 			"/>
			
				<linearGradient id="SVGID_00000029737077693028499450000013262277205737014449_" gradientUnits="userSpaceOnUse" x1="341.9818" y1="152.5437" x2="485.5065" y2="152.5437" gradientTransform="matrix(1 0 0 1 -99.2549 177.3422)">
				<stop  offset="9.000000e-02" style="stop-color:#6CC04A"/>
				<stop  offset="0.29" style="stop-color:#66B748"/>
				<stop  offset="0.6" style="stop-color:#54A044"/>
				<stop  offset="0.86" style="stop-color:#41873F"/>
			</linearGradient>
			<path style="fill:url(#SVGID_00000029737077693028499450000013262277205737014449_);" d="M380.4,312.8l-62.2,35.9
				c-0.8,0.5-1.8,0.8-2.7,1l1.2,2.2l69-39.9v-1l-1.7-3C383.6,310.1,382.2,311.8,380.4,312.8z"/>
			
				<linearGradient id="SVGID_00000062911253570329171670000010728065855519466920_" gradientUnits="userSpaceOnUse" x1="506.3669" y1="38.2867" x2="417.8537" y2="218.8635" gradientTransform="matrix(1 0 0 1 -99.2549 177.3422)">
				<stop  offset="0" style="stop-color:#41873F"/>
				<stop  offset="0.33" style="stop-color:#418B3D"/>
				<stop  offset="0.64" style="stop-color:#409637"/>
				<stop  offset="0.93" style="stop-color:#3FA92D"/>
				<stop  offset="1" style="stop-color:#3FAE2A"/>
			</linearGradient>
			<path style="fill:url(#SVGID_00000062911253570329171670000010728065855519466920_);" d="M380.4,312.8l-62.2,35.9
				c-0.8,0.5-1.8,0.8-2.7,1l1.2,2.2l69-39.9v-1l-1.7-3C383.6,310.1,382.2,311.8,380.4,312.8z"/>
		</g>
	</g>
</g>
</svg>